<svg version="1.2" xmlns="http://www.w3.org/2000/svg" viewBox="0 0 24 24" width="24" height="24">
	<title>file</title>
	<style>
		.s0 { fill: none;stroke: #4a90e2;stroke-linecap: round;stroke-linejoin: round;stroke-width: 2 } 
	</style>
	<path class="s0" d="m16 21v-2q0-0.8-0.3-1.5-0.3-0.8-0.9-1.3-0.5-0.6-1.3-0.9-0.7-0.3-1.5-0.3h-6q-0.8 0-1.5 0.3-0.8 0.3-1.3 0.9-0.6 0.5-0.9 1.3-0.3 0.7-0.3 1.5v2"/>
	<path class="s0" d="m16 3.1c0.9 0.3 1.6 0.8 2.2 1.5 0.5 0.7 0.8 1.5 0.8 2.4 0 0.9-0.3 1.7-0.8 2.4-0.6 0.7-1.3 1.2-2.2 1.5"/>
	<path class="s0" d="m22 21v-2q0-0.7-0.2-1.3-0.2-0.6-0.6-1.1-0.4-0.6-1-0.9-0.6-0.4-1.2-0.6"/>
	<path fill-rule="evenodd" class="s0" d="m9 11c-2.2 0-4-1.8-4-4 0-2.2 1.8-4 4-4 2.2 0 4 1.8 4 4 0 2.2-1.8 4-4 4z"/>
</svg>